<?xml version="1.0" standalone="no"?>
<!DOCTYPE svg PUBLIC "-//W3C//DTD SVG 20010904//EN"
 "http://www.w3.org/TR/2001/REC-SVG-20010904/DTD/svg10.dtd">
<svg version="1.0" xmlns="http://www.w3.org/2000/svg"
 width="512.000000px" height="256.000000px" viewBox="0 0 512.000000 256.000000"
 preserveAspectRatio="xMidYMid meet">

<g transform="translate(0.000000,384.000000) scale(0.100000,-0.100000)"
fill="#000000" stroke="none">
<path d="M144 3364 c-59 -108 -73 -152 -53 -165 8 -5 363 -9 846 -9 l833 0 24
38 c34 50 89 191 82 208 -5 12 -133 14 -845 14 l-840 0 -47 -86z m1723 56 c-2
-3 -24 -49 -51 -102 l-47 -98 -840 0 -840 0 26 43 c14 23 40 68 57 99 l32 57
91 3 c158 5 1575 3 1572 -2z"/>
<path d="M2730 3443 c-177 -27 -293 -76 -379 -158 -188 -179 -188 -524 0 -700
27 -25 82 -62 122 -80 135 -64 153 -66 782 -75 327 -5 590 -13 617 -19 146
-32 198 -87 198 -209 0 -127 -60 -204 -195 -250 -46 -16 -185 -17 -1865 -22
l-1815 -5 -45 -75 c-59 -98 -79 -158 -59 -171 8 -5 766 -8 1904 -6 2046 3
1903 -1 2060 53 56 19 149 75 182 110 82 88 122 188 130 321 17 282 -120 456
-405 515 -83 16 -162 20 -665 27 -622 9 -640 11 -715 68 -61 46 -74 77 -69
170 4 104 36 161 113 205 76 42 168 47 887 48 l627 0 34 53 c55 86 99 189 84
199 -13 8 -1479 9 -1528 1z m1510 -26 c0 -7 -6 -21 -14 -32 -7 -11 -30 -53
-51 -92 l-37 -73 -626 0 c-345 0 -672 -5 -726 -10 -214 -21 -306 -110 -306
-295 0 -75 18 -124 61 -159 90 -76 160 -84 809 -90 602 -5 623 -7 755 -69 163
-78 235 -201 235 -402 0 -248 -102 -381 -355 -466 l-70 -24 -1120 -2 c-616 -2
-1474 -4 -1908 -6 -613 -1 -787 1 -787 10 0 7 17 39 37 72 21 32 46 73 55 90
l17 30 1808 4 c1984 3 1851 -1 1957 61 88 51 128 126 127 237 0 130 -71 207
-219 240 -28 7 -288 14 -627 18 -544 7 -585 9 -657 29 -222 60 -337 189 -355
398 -12 150 38 296 131 382 60 54 131 91 239 124 71 22 85 22 837 28 421 3
771 7 778 8 6 1 12 -4 12 -11z"/>
<path d="M4772 3437 c-13 -15 -16 -1654 -4 -1722 l7 -40 111 -3 c61 -1 123 2
138 7 l26 11 0 874 c0 788 -2 874 -16 880 -32 12 -251 7 -262 -7z m251 -879
l5 -858 -21 0 c-12 0 -65 -1 -117 -3 l-95 -2 -3 855 c-1 470 0 860 2 865 2 6
45 8 114 5 l110 -5 5 -857z"/>
<path d="M383 2691 l-192 -6 -33 -55 c-45 -74 -78 -146 -78 -169 0 -13 10 -20
31 -25 43 -8 1585 -7 1634 2 37 7 42 12 72 72 47 94 68 159 54 173 -12 12
-1153 18 -1488 8z m1487 -30 c0 -5 -6 -14 -14 -20 -11 -10 -64 -116 -79 -163
-6 -17 -55 -18 -842 -18 -599 0 -835 3 -835 11 0 6 8 23 18 37 11 15 36 57 56
95 l38 67 829 0 c469 0 829 -4 829 -9z"/>
</g>
</svg>
